<svg width="39" height="38" viewBox="0 0 39 38" fill="none" xmlns="http://www.w3.org/2000/svg">
<path d="M19.5 38C29.9934 38 38.5 29.4934 38.5 19C38.5 8.50659 29.9934 0 19.5 0C9.00659 0 0.5 8.50659 0.5 19C0.5 29.4934 9.00659 38 19.5 38Z" fill="#1D1D1B"/>
<path d="M25.6027 19.133C25.6127 18.403 25.8157 17.687 26.1947 17.051C26.5799 16.4093 27.1214 15.8757 27.7687 15.5C27.347 14.9305 26.7994 14.4661 26.1687 14.143C25.5272 13.8141 24.8203 13.6327 24.0997 13.612C22.5557 13.458 21.0597 14.492 20.2727 14.492C19.4707 14.492 18.2597 13.627 16.9557 13.652C16.1164 13.6773 15.2965 13.9106 14.5697 14.331C13.8562 14.7418 13.2615 15.3307 12.8437 16.04C11.0667 18.97 12.3927 23.276 14.0957 25.644C14.9477 26.804 15.9437 28.099 17.2457 28.053C18.5217 28.003 18.9977 27.279 20.5357 27.279C22.0617 27.279 22.5077 28.053 23.8377 28.024C25.2057 28.003 26.0677 26.859 26.8897 25.688C27.499 24.8679 27.9705 23.9539 28.2857 22.982C27.4998 22.6692 26.8221 22.134 26.3357 21.442C25.8609 20.7654 25.6051 19.9595 25.6027 19.133ZM23.0907 12.054C23.4574 11.6396 23.7371 11.1557 23.9132 10.6311C24.0893 10.1064 24.1581 9.55176 24.1157 9C22.9884 9.10793 21.9396 9.62436 21.1667 10.452C20.7967 10.852 20.5147 11.319 20.3337 11.823C20.1543 12.3259 20.0801 12.8603 20.1157 13.393C20.6841 13.4003 21.2472 13.2832 21.7657 13.05C22.2761 12.821 22.7288 12.4807 23.0907 12.054Z" fill="white"/>
</svg>
