<svg width="39" height="38" viewBox="0 0 39 38" fill="none" xmlns="http://www.w3.org/2000/svg">
<path d="M19.5 38C29.9934 38 38.5 29.4934 38.5 19C38.5 8.50659 29.9934 0 19.5 0C9.00659 0 0.5 8.50659 0.5 19C0.5 29.4934 9.00659 38 19.5 38Z" fill="#1D1D1B"/>
<path d="M19.756 18.748L11.082 28.635L11.083 28.641C11.349 29.715 12.263 30.505 13.346 30.505C13.779 30.505 14.186 30.38 14.536 30.159L14.563 30.141L24.327 24.091L19.756 18.748Z" fill="#EB3131"/>
<path d="M28.5316 17.0651L28.5236 17.0591L24.3086 14.4351L19.5586 18.9731L24.3246 24.0901L28.5176 21.4921C29.2536 21.0661 29.7526 20.2341 29.7526 19.2741C29.7526 18.3211 29.2586 17.4931 28.5316 17.0651Z" fill="#F6B60B"/>
<path d="M11.08 9.87012C11.0273 10.0768 11.0007 10.2925 11 10.5171V27.9891C11 28.2138 11.0267 28.4295 11.08 28.6361L20.054 19.0011L11.08 9.87012Z" fill="#5778C5"/>
<path d="M19.82 19.253L24.31 14.433L14.557 8.36C14.1965 8.12577 13.776 8.00075 13.346 8C12.262 8 11.348 8.792 11.082 9.867V9.87L19.82 19.253Z" fill="#3BAD49"/>
</svg>
